name rise30.9205peak61.366fall85.3838.mot
datacolumns 19
datarows 21
range 10.34163700000000 10.37497300000000
endheader
time	ground_force1_vx	ground_force1_vy	ground_force1_vz	ground_force1_px	ground_force1_py	ground_force1_pz	ground_force2_vx	ground_force2_vy	ground_force2_vz	ground_force2_px	ground_force2_py	ground_force2_pz	ground_torque1_x	ground_torque1_y	ground_torque1_z	ground_torque2_x	ground_torque2_y	ground_torque2_z	
10.34163700000000	50.92030500000000	727.18640500000004	55.61440900000000	0.32798100000000	0.00000000000000	0.12918300000000	-0.10397800000000	7.07998100000000	0.39201600000000	0.00000000000000	0.00000000000000	0.00000000000000	0.00000000000000	21.51322300000000	0.00000000000000	0.00000000000000	0.02620600000000	0.00000000000000	
10.34329400000000	50.37484400000000	730.93700600000000	55.92456800000000	0.32716700000000	0.00000000000000	0.12924100000000	0.15331700000000	3.54947600000000	0.25405600000000	0.00000000000000	0.00000000000000	0.00000000000000	0.00000000000000	21.70678500000000	0.00000000000000	0.00000000000000	0.03405300000000	0.00000000000000	
10.34496700000000	49.83076900000000	734.60619399999996	56.23148000000000	0.32637100000000	0.00000000000000	0.12929800000000	0.00000000000000	0.00000000000000	0.00000000000000	0.00000000000000	0.00000000000000	0.00000000000000	0.00000000000000	21.89950200000000	0.00000000000000	0.00000000000000	0.00000000000000	0.00000000000000	
10.34663300000000	49.28792200000000	738.19105999999999	56.53443000000000	0.32559200000000	0.00000000000000	0.12935500000000	0.00000000000000	0.00000000000000	0.00000000000000	0.00000000000000	0.00000000000000	0.00000000000000	0.00000000000000	22.09094600000000	0.00000000000000	0.00000000000000	0.00000000000000	0.00000000000000	
10.34829500000000	48.74609300000000	741.68870700000002	56.83265600000000	0.32482600000000	0.00000000000000	0.12941100000000	0.00000000000000	0.00000000000000	0.00000000000000	0.00000000000000	0.00000000000000	0.00000000000000	0.00000000000000	22.28066100000000	0.00000000000000	0.00000000000000	0.00000000000000	0.00000000000000	
10.34996500000000	48.20503000000000	745.09626900000001	57.12535400000000	0.32407200000000	0.00000000000000	0.12946800000000	0.00000000000000	0.00000000000000	0.00000000000000	0.00000000000000	0.00000000000000	0.00000000000000	0.00000000000000	22.46816600000000	0.00000000000000	0.00000000000000	0.00000000000000	0.00000000000000	
10.35166800000000	47.66444200000000	748.41091900000004	57.41168500000000	0.32332900000000	0.00000000000000	0.12952400000000	0.00000000000000	0.00000000000000	0.00000000000000	0.00000000000000	0.00000000000000	0.00000000000000	0.00000000000000	22.65296100000000	0.00000000000000	0.00000000000000	0.00000000000000	0.00000000000000	
10.35329500000000	47.12400400000000	751.62988399999995	57.69077900000000	0.32259400000000	0.00000000000000	0.12958000000000	0.00000000000000	0.00000000000000	0.00000000000000	0.00000000000000	0.00000000000000	0.00000000000000	0.00000000000000	22.83452400000000	0.00000000000000	0.00000000000000	0.00000000000000	0.00000000000000	
10.35496100000000	46.58336300000000	754.75045899999998	57.96174300000000	0.32186400000000	0.00000000000000	0.12963500000000	0.00000000000000	0.00000000000000	0.00000000000000	0.00000000000000	0.00000000000000	0.00000000000000	0.00000000000000	23.01232100000000	0.00000000000000	0.00000000000000	0.00000000000000	0.00000000000000	
10.35666200000000	46.04214300000000	757.77001600000006	58.22366600000000	0.32113800000000	0.00000000000000	0.12969000000000	0.00000000000000	0.00000000000000	0.00000000000000	0.00000000000000	0.00000000000000	0.00000000000000	0.00000000000000	23.18580600000000	0.00000000000000	0.00000000000000	0.00000000000000	0.00000000000000	
10.35831400000000	45.49995000000000	760.68601799999999	58.47563000000000	0.32041400000000	0.00000000000000	0.12974500000000	0.00000000000000	0.00000000000000	0.00000000000000	0.00000000000000	0.00000000000000	0.00000000000000	0.00000000000000	23.35442400000000	0.00000000000000	0.00000000000000	0.00000000000000	0.00000000000000	
10.35996200000000	44.95637600000000	763.49603200000001	58.71670700000000	0.31968900000000	0.00000000000000	0.12979900000000	0.00000000000000	0.00000000000000	0.00000000000000	0.00000000000000	0.00000000000000	0.00000000000000	0.00000000000000	23.51761800000000	0.00000000000000	0.00000000000000	0.00000000000000	0.00000000000000	
10.36164600000000	44.41100700000000	766.19773499999997	58.94597800000000	0.31896200000000	0.00000000000000	0.12985300000000	0.00000000000000	0.00000000000000	0.00000000000000	0.00000000000000	0.00000000000000	0.00000000000000	0.00000000000000	23.67483000000000	0.00000000000000	0.00000000000000	0.00000000000000	0.00000000000000	
10.36330000000000	43.86342700000000	768.78893300000004	59.16252700000000	0.31822900000000	0.00000000000000	0.12990600000000	0.00000000000000	0.00000000000000	0.00000000000000	0.00000000000000	0.00000000000000	0.00000000000000	0.00000000000000	23.82550400000000	0.00000000000000	0.00000000000000	0.00000000000000	0.00000000000000	
10.36496400000000	43.31322100000000	771.26756300000000	59.36545800000000	0.31749000000000	0.00000000000000	0.12995900000000	0.00000000000000	0.00000000000000	0.00000000000000	0.00000000000000	0.00000000000000	0.00000000000000	0.00000000000000	23.96909500000000	0.00000000000000	0.00000000000000	0.00000000000000	0.00000000000000	
10.36666300000000	42.75998000000000	773.63170800000000	59.55389300000000	0.31674200000000	0.00000000000000	0.13001100000000	0.00000000000000	0.00000000000000	0.00000000000000	0.00000000000000	0.00000000000000	0.00000000000000	0.00000000000000	24.10506500000000	0.00000000000000	0.00000000000000	0.00000000000000	0.00000000000000	
10.36830000000000	42.20331100000000	775.87960399999997	59.72698500000000	0.31598400000000	0.00000000000000	0.13006300000000	0.00000000000000	0.00000000000000	0.00000000000000	0.00000000000000	0.00000000000000	0.00000000000000	0.00000000000000	24.23289300000000	0.00000000000000	0.00000000000000	0.00000000000000	0.00000000000000	
10.36996000000000	41.64283200000000	778.00964699999997	59.88392000000000	0.31521200000000	0.00000000000000	0.13011500000000	0.00000000000000	0.00000000000000	0.00000000000000	0.00000000000000	0.00000000000000	0.00000000000000	0.00000000000000	24.35207500000000	0.00000000000000	0.00000000000000	0.00000000000000	0.00000000000000	
10.37166000000000	41.07818500000000	780.02040399999998	60.02392100000000	0.31442600000000	0.00000000000000	0.13016600000000	0.00000000000000	0.00000000000000	0.00000000000000	0.00000000000000	0.00000000000000	0.00000000000000	0.00000000000000	24.46213200000000	0.00000000000000	0.00000000000000	0.00000000000000	0.00000000000000	
10.37329600000000	40.50903500000000	781.91061900000000	60.14625900000000	0.31362400000000	0.00000000000000	0.13021700000000	0.00000000000000	0.00000000000000	0.00000000000000	0.00000000000000	0.00000000000000	0.00000000000000	0.00000000000000	24.56260600000000	0.00000000000000	0.00000000000000	0.00000000000000	0.00000000000000	
10.37497300000000	39.93507500000000	783.67921699999999	60.25025400000000	0.31280400000000	0.00000000000000	0.13026700000000	0.00000000000000	0.00000000000000	0.00000000000000	0.00000000000000	0.00000000000000	0.00000000000000	0.00000000000000	24.65306900000000	0.00000000000000	0.00000000000000	0.00000000000000	0.00000000000000	
